<svg xmlns="http://www.w3.org/2000/svg" width="397.4" height="229.8" viewBox="0 0 397.4 229.8" xml:space="preserve"><path fill="#D72D88" d="M37.4 214.2H37c-0.1 0-0.1 0-0.1-0.1 -0.1 0.1-0.2 0.1-0.3 0.2 -0.1 0.1-0.2 0.1-0.3 0.2 -1.9 1-3.8 1.7-5.7 2.2 -1.9 0.5-4 0.4-6.2-0.2 -3.4-1-5.8-2.4-7.2-4.1 -1.4-1.7-2-4.1-1.9-7.2 0.1-1.7 0.5-3.2 1.2-4.4 0.8-1.3 1.9-2.2 3.5-2.9 2.1-0.9 4.4-1.3 6.9-1.3 1.8-0.1 3.5 0.2 5.3 0.7 1.7 0.6 3.3 1.5 4.9 2.8 0.2-0.3 0.3-0.6 0.5-0.9 0.1-0.2 0.2-0.4 0.2-0.6 0-1.7 0-3.5 0-5.2 0-1.7-0.1-3.4-0.1-5.1 0-1.2-0.5-2.1-1.5-3 -0.9-0.7-1.9-1.2-3.2-1.5 -1.7-0.4-3.4-0.7-5.1-0.8 -1.7-0.1-3.4-0.2-5.1-0.3 -1.3 0-2.5 0.1-3.7 0.3 -1.2 0.2-2.4 0.5-3.6 1 -2 0.9-3.8 2-5.5 3.4 -1.6 1.4-3.2 2.9-4.6 4.5 -0.4 0.5-0.8 0.9-1.2 1.4 -0.4 0.5-0.7 1-0.9 1.5 -0.7 1.9-1.2 3.7-1.6 5.6 -0.4 1.9-0.7 3.7-0.8 5.6 -0.1 2.3 0.1 4.5 0.6 6.6s1.2 4.3 1.9 6.3c0.1 0.4 0.3 0.8 0.5 1.2 0.2 0.4 0.4 0.7 0.6 1.1 1 1.6 2.3 2.8 3.8 3.8 1.5 1 3 1.7 4.7 2.3 4.7 1.5 9.4 2.1 14.1 1.7 1.5-0.1 3-0.4 4.4-0.7 1.4-0.4 2.9-0.7 4.3-0.9 0.6-0.1 1.1-0.4 1.3-0.8 0.2-0.4 0.3-0.9 0.3-1.4 0.1-1.5 0.2-3 0.3-4.5 0.1-1.5 0.2-3 0.2-4.5 0-0.4-0.1-0.8-0.2-1.2S37.4 214.6 37.4 214.2zM78.4 191.6c-1.1-1.9-2.4-3.3-4-4.5 -1.6-1.1-3.3-2-5.2-2.7 -1.2-0.4-2.4-0.6-3.7-0.7 -1.3-0.1-2.6-0.2-4-0.3 -2.7-0.3-5.3-0.1-7.7 0.7 -2.4 0.8-4.8 1.8-7.2 3 -0.1 2-0.2 4-0.2 6 0 2-0.1 4.1-0.1 6.3 0.4-0.3 0.7-0.6 0.9-0.8 0.2-0.3 0.4-0.4 0.7-0.6 2.3-1.3 4.6-2.2 7-2.7 2.4-0.4 4.8-0.3 7.4 0.3 0.8 0.1 1.4 0.4 2 0.9 0.5 0.5 0.9 1.1 1.1 1.8 0.2 0.6 0.3 1.3 0.3 2 0.1 0.7 0.1 1.5 0.3 2.3 -0.6-0.1-1.2-0.1-1.6-0.1s-0.9 0-1.3-0.1c-0.6-0.1-1.3-0.1-1.9-0.1 -0.6 0-1.3 0-1.9 0 -0.5-0.1-1 0-1.5 0 -0.5 0.1-1 0.1-1.5 0.1 -2-0.1-3.7 0.3-5.3 1.2 -1.6 0.8-3.1 1.8-4.5 3 -0.5 0.5-1 1-1.5 1.5s-0.9 1.1-1.2 1.7c-1.7 3.3-2.1 6.5-1.2 9.6 1 3.1 3 5.6 6.1 7.6 1.3 0.9 2.8 1.4 4.3 1.7 1.6 0.3 3.1 0.4 4.7 0.5 1.2 0.1 2.3 0.1 3.4 0 1.1-0.1 2.2-0.1 3.4 0 4.5 0.2 8.9-0.4 13.2-2 0.7-0.2 1.2-0.4 1.6-0.6 0.3-0.2 0.6-0.4 0.8-0.6 0.2-0.2 0.3-0.6 0.3-1 0-0.4 0-1 0-1.7v-22.2c0-1.7-0.1-3.3-0.3-5C79.9 194.7 79.3 193.1 78.4 191.6zM66.9 218.8c-1.5 0.4-2.9 0.6-4.3 0.6 -1.4 0-2.7-0.3-4-1 -0.7-0.3-1.2-0.8-1.5-1.5 -0.3-0.6-0.4-1.3-0.4-2s0.2-1.3 0.5-2c0.3-0.6 0.8-1 1.4-1.3 0.3-0.1 0.6-0.2 0.9-0.3 0.3-0.1 0.6-0.2 0.9-0.3 1-0.1 2.1-0.2 3.2-0.2 1.1 0 2.2-0.1 3.4-0.2V218.8zM115.2 196.9c-0.1-1.9-0.1-3.7-0.2-5.6 -0.1-1.9-0.1-3.7-0.1-5.6 0.1-0.8-0.1-1.3-0.3-1.5 -0.3-0.3-0.7-0.5-1.3-0.7 -4.1-1.2-8.2-1.4-12.3-0.7 -0.9 0.2-1.8 0.3-2.7 0.5 -0.9 0.1-1.8 0.3-2.7 0.5 -0.2 0-0.4 0.1-0.6 0.2 -1.3 0.6-2.7 1.3-4 1.9 -1.3 0.6-2.7 1.3-4 1.9v1.2c0.1 1.9 0.2 3.8 0.3 5.7 0.1 1.9 0.1 3.8 0.1 5.7 0.1 1.7 0.1 3.3 0 4.9 -0.1 1.6-0.1 3.2-0.1 4.9 0 2.2 0 4.4 0 6.6 0 2.2 0.1 4.4 0.1 6.6 0 0.8 0 1.6-0.1 2.4 -0.1 0.8-0.1 1.6 0 2.6 0 0.3 0.1 0.4 0.3 0.4 0.6 0 1.2 0 1.7 0 0.5 0 1.1 0.1 1.8 0.1 1.4 0.1 2.9 0 4.3-0.2 1.4-0.2 2.9-0.2 4.3 0.1 0.3 0.1 0.6 0 1-0.1 0.4-0.1 0.7-0.2 1-0.3 0.2-0.1 0.4-0.3 0.6-0.5 0.1-0.2 0.2-0.4 0.2-0.6 -0.1-0.9-0.1-1.7-0.2-2.6 -0.1-0.8-0.2-1.7-0.2-2.6 -0.1-1.6-0.2-3.1-0.2-4.7 0-1.6 0-3.2-0.1-4.8l-0.3-8.1v-6.3c0.4-0.1 0.8-0.2 1.1-0.3 0.3-0.1 0.7-0.1 1-0.2 1.1-0.1 2.2-0.2 3.2-0.4 1-0.1 2.1 0 3.1 0.3 0.6 0.2 1.3 0.3 2 0.5 0.7 0.2 1.3 0.3 2 0.4 0.2 0.1 0.4 0.1 0.6 0 0.2-0.1 0.5-0.1 0.7-0.1 -0.1-0.4-0.1-0.8-0.1-1C115.3 197.5 115.3 197.2 115.2 196.9zM157.6 206.8c-0.2-1.5-0.5-3-0.7-4.6 -0.2-1.5-0.4-3.1-0.5-4.6 -0.1-1.3-0.4-2.5-0.7-3.7 -0.4-1.2-0.9-2.3-1.4-3.4 -1.9-3.5-4.7-5.6-8.5-6.4 -0.9-0.2-1.7-0.4-2.6-0.7 -0.8-0.3-1.7-0.5-2.6-0.6 -1.2-0.1-2.3-0.2-3.5-0.4 -1.2-0.1-2.3-0.1-3.3 0.2 -3.4 1-6.3 2.5-8.6 4.7 -2.3 2.1-4.4 4.8-6 7.8 -1.3 2.4-2.2 4.9-2.5 7.5 -0.3 2.6-0.5 5.2-0.5 7.8 0 2.4 0.5 4.6 1.6 6.5 1 1.9 2.3 3.7 3.6 5.4 1.4 1.7 3.1 3 5.1 4 1.6 0.8 3.2 1.4 4.9 1.8 1.7 0.4 3.4 0.7 5.2 1 2.2 0.3 4.4 0.3 6.6 0.1 2.2-0.2 4.4-0.6 6.6-1.2 0.6-0.1 1.3-0.3 2-0.6 0.7-0.3 1.3-0.6 2-0.9 0.6-0.3 1.2-0.6 1.8-0.9 0.6-0.3 1.2-0.6 1.8-0.9 0-1.6 0-3.2 0-4.8 0-1.6 0-3.3 0-5 0-0.9-0.6-1.1-1.7-0.7 -0.8 0.3-1.6 0.6-2.5 0.8 -0.8 0.2-1.7 0.5-2.5 0.7 -0.8 0.2-1.7 0.4-2.6 0.5 -0.9 0.1-1.8 0.3-2.6 0.6 -2 0.6-3.9 0.8-5.6 0.6 -1.8-0.2-3.6-0.8-5.3-1.8 -1-0.5-1.8-1.1-2.5-2 -0.7-0.8-1.3-1.8-1.8-3 0.3-0.1 0.6-0.1 0.9-0.1 0.2 0 0.5 0 0.7 0 2-0.1 3.9-0.1 5.9-0.2 2-0.1 3.9-0.1 5.9-0.1 1.9 0 3.8 0 5.7 0.1 1.9 0.1 3.8 0.1 5.7 0.3h1.3c0.9 0 1.4-0.4 1.4-1.3 0-0.5 0-0.9 0-1.4C157.7 207.7 157.7 207.3 157.6 206.8zM130.6 201.6c0.1-0.7 0.3-1.3 0.7-1.8s0.9-1 1.3-1.4c1-0.9 2-1.7 3.2-2.2 1.1-0.5 2.4-0.6 4-0.1 1.3 0.4 2.3 1.2 3 2.3 0.5 0.8 0.8 1.5 1 2.2 0.2 0.6 0.4 1.4 0.5 2.2C139.8 203.2 135.2 202.8 130.6 201.6zM202 206.8c-0.2-1.5-0.5-3-0.7-4.6 -0.2-1.5-0.4-3.1-0.5-4.6 -0.1-1.3-0.4-2.5-0.7-3.7 -0.4-1.2-0.9-2.3-1.4-3.4 -1.9-3.5-4.7-5.6-8.5-6.4 -0.9-0.2-1.7-0.4-2.6-0.7 -0.8-0.3-1.7-0.5-2.6-0.6 -1.2-0.1-2.3-0.2-3.5-0.4 -1.2-0.1-2.3-0.1-3.3 0.2 -3.4 1-6.3 2.5-8.6 4.7 -2.3 2.1-4.4 4.8-6 7.8 -1.3 2.4-2.2 4.9-2.5 7.5 -0.3 2.6-0.5 5.2-0.5 7.8 0 2.4 0.5 4.6 1.6 6.5s2.3 3.7 3.6 5.4c1.4 1.7 3.1 3 5.1 4 1.6 0.8 3.2 1.4 4.9 1.8 1.7 0.4 3.4 0.7 5.2 1 2.2 0.3 4.4 0.3 6.6 0.1 2.2-0.2 4.4-0.6 6.6-1.2 0.6-0.1 1.3-0.3 2-0.6 0.7-0.3 1.3-0.6 2-0.9 0.6-0.3 1.2-0.6 1.8-0.9 0.6-0.3 1.2-0.6 1.8-0.9 0-1.6 0-3.2 0-4.8 0-1.6 0-3.3 0-5 0-0.9-0.6-1.1-1.7-0.7 -0.8 0.3-1.6 0.6-2.5 0.8 -0.8 0.2-1.7 0.5-2.5 0.7 -0.8 0.2-1.7 0.4-2.6 0.5 -0.9 0.1-1.8 0.3-2.6 0.6 -2 0.6-3.9 0.8-5.6 0.6 -1.8-0.2-3.6-0.8-5.3-1.8 -1-0.5-1.8-1.1-2.5-2 -0.7-0.8-1.3-1.8-1.8-3 0.3-0.1 0.6-0.1 0.9-0.1 0.2 0 0.5 0 0.7 0 2-0.1 3.9-0.1 5.9-0.2 2-0.1 3.9-0.1 5.9-0.1 1.9 0 3.8 0 5.7 0.1 1.9 0.1 3.8 0.1 5.7 0.3h1.3c0.9 0 1.4-0.4 1.4-1.3 0-0.5 0-0.9 0-1.4C202.1 207.7 202.1 207.3 202 206.8zM175 201.6c0.1-0.7 0.3-1.3 0.7-1.8s0.9-1 1.3-1.4c1-0.9 2-1.7 3.2-2.2 1.1-0.5 2.4-0.6 4-0.1 1.3 0.4 2.3 1.2 3 2.3 0.5 0.8 0.8 1.5 1 2.2 0.2 0.6 0.4 1.4 0.5 2.2C184.2 203.2 179.6 202.8 175 201.6zM235.2 197.8c0-0.3 0-0.6-0.1-0.9 -0.1-1.9-0.1-3.7-0.2-5.6 -0.1-1.9-0.1-3.7-0.1-5.6 0.1-0.8-0.1-1.3-0.3-1.5 -0.3-0.3-0.7-0.5-1.3-0.7 -4.1-1.2-8.2-1.4-12.3-0.7 -0.9 0.2-1.8 0.3-2.7 0.5s-1.8 0.3-2.7 0.5c-0.2 0-0.4 0.1-0.6 0.2 -1.3 0.6-2.7 1.3-4 1.9 -1.3 0.6-2.7 1.3-4 1.9v1.2c0.1 1.9 0.2 3.8 0.3 5.7 0.1 1.9 0.1 3.8 0.1 5.7 0.1 1.7 0.1 3.3 0 4.9 -0.1 1.6-0.1 3.2-0.1 4.9 0 2.2 0 4.4 0 6.6 0 2.2 0.1 4.4 0.1 6.6 0 0.8 0 1.6-0.1 2.4 -0.1 0.8-0.1 1.6 0 2.6 0 0.3 0.1 0.4 0.3 0.4 0.6 0 1.2 0 1.7 0 0.5 0 1.1 0.1 1.8 0.1 1.4 0.1 2.9 0 4.3-0.2 1.4-0.2 2.9-0.2 4.3 0.1 0.3 0.1 0.6 0 1-0.1 0.4-0.1 0.7-0.2 1-0.3 0.2-0.1 0.4-0.3 0.6-0.5 0.1-0.2 0.2-0.4 0.2-0.6 -0.1-0.9-0.1-1.7-0.2-2.6 -0.1-0.8-0.2-1.7-0.2-2.6 -0.1-1.6-0.2-3.1-0.2-4.7 0-1.6 0-3.2-0.1-4.8l-0.3-8.1v-6.3c0.4-0.1 0.8-0.2 1.1-0.3 0.3-0.1 0.7-0.1 1-0.2 1.1-0.1 2.2-0.2 3.2-0.4s2.1 0 3.1 0.3c0.6 0.2 1.3 0.3 2 0.5 0.7 0.2 1.3 0.3 2 0.4 0.2 0.1 0.4 0.1 0.6 0s0.5-0.1 0.7-0.1C235.3 198.4 235.2 198.1 235.2 197.8z"/><path fill="#00A0AC" d="M296.6 173.4c3.9-0.3 7.4-1.4 10.3-3.4 3-2 5.4-4.6 7.2-8 1.9-3.4 2.8-7 2.8-11 0.6-3.4-0.1-6.4-2.1-9.1 -2-2.7-4.1-5.3-6.5-7.9 -2.2-2.4-4.8-3.9-7.8-4.6 -3.1-0.7-6.1-1.1-9.3-1.3 -3.1-0.2-6 0.4-8.6 1.8 -2.6 1.4-4.7 3.2-6.5 5.3 -1.8 2.2-3.1 4.7-4.1 7.6 -1 2.9-1.5 5.6-1.5 8.2 0.2 4.6 1.6 8.4 4.1 11.6 2.6 3.2 5.8 5.8 9.7 8C288.6 172.8 292.7 173.7 296.6 173.4zM261.5 126.9c3.5-6.3 5.3-13.2 5.3-20.7 1.1-6.3-0.2-12-3.9-17 -3.7-5-7.8-10-12.2-14.8 -4.1-4.5-9-7.4-14.7-8.7 -5.7-1.3-11.6-2.1-17.5-2.5 -5.9-0.4-11.3 0.8-16.1 3.4 -4.8 2.6-8.9 6-12.2 10.1 -3.3 4.1-5.9 8.8-7.8 14.2 -1.9 5.4-2.8 10.5-2.8 15.4 0.4 8.6 3 15.8 7.8 21.8 4.8 6 10.9 11 18.3 15.1 7.8 4.1 15.4 5.9 22.8 5.3 7.4-0.6 13.9-2.7 19.4-6.4C253.5 138.2 258 133.2 261.5 126.9zM278.7 191.3c-0.8-1.8-2.1-3.3-3.9-4.6 -2.3-1.6-4.8-2.7-7.3-3.3 -2.5-0.6-5.2-0.5-8.1 0.3 -0.8 0.2-1.6 0.4-2.5 0.7 -0.8 0.2-1.7 0.4-2.7 0.7 -0.4-4-0.6-7.9-0.4-11.7 0.1-3.8 0.1-7.6 0-11.5 -1.2 0-2.4 0-3.5 0 -1.1 0-2.2 0.1-3.3 0.1 -1.2 0.1-2.3 0-3.4-0.1s-2.2-0.1-3.3 0c0 1.3 0 2.5 0 3.6 0 1.1 0 2.2 0 3.3 -0.1 3-0.2 5.9-0.3 8.9 -0.1 3-0.2 5.9-0.2 8.9 -0.1 1.6-0.1 3.1 0 4.7 0 1.6 0 3.1 0 4.7 -0.1 3-0.2 5.9-0.3 8.8 -0.1 2.9-0.1 5.8-0.2 8.8 0 4.2 0.1 8.3 0.3 12.3 0.1 0.7 0.1 1.2 0.2 1.6 0.1 0.4 0.2 0.7 0.3 0.9 0.2 0.2 0.4 0.3 0.8 0.4 0.4 0.1 0.9 0.2 1.6 0.2 1.5 0.2 3 0.3 4.5 0.3 1.5 0 2.9-0.2 4.4-0.7 1-0.3 1.6-0.6 1.7-0.8 0.2-0.3 0.3-0.9 0.3-1.9 0-2 0-4.1 0-6.1 0-2 0-4.1 0-6.1 0.1-1.9 0.1-3.7 0.1-5.6 0-1.9 0.1-3.8 0.1-5.6 0-0.5 0-0.9 0.1-1.3 0.1-0.4 0.2-0.8 0.2-1.3 0-0.5 0-0.9-0.1-1.3 -0.1-0.4-0.1-0.9-0.2-1.4 1.2-0.1 2.4-0.2 3.5-0.3 1.1-0.1 2.2-0.3 3.2-0.4 1.7-0.2 3 0 3.8 0.7 0.8 0.7 1.5 1.8 2.1 3.5 0.3 1 0.5 2 0.5 3.1s0 2.2 0 3.3c0.1 1.2 0 2.3 0 3.5 -0.1 1.2-0.2 2.4-0.2 3.5 -0.1 1.2-0.2 2.4-0.2 3.7 0 1.2-0.1 2.5-0.1 3.7 0 1.2 0 2.4 0 3.7 0 1.2 0.1 2.4 0.1 3.6 0 0.2 0.1 0.3 0.2 0.5 0.1 0.1 0.2 0.2 0.2 0.3 0.8-0.1 1.4-0.2 2-0.2 0.6 0 1.2-0.1 1.9-0.2 0.9-0.1 1.7-0.2 2.6-0.3 0.8-0.1 1.7-0.1 2.6-0.3 0.9-0.1 1.7-0.3 2.3-0.4 0.6-0.1 1.1-0.2 1.6-0.3 0.5-0.1 0.7-0.2 0.7-0.3 -0.3-1-0.4-2-0.4-3 0-1 0.1-2 0.1-3 0.1-1.9 0.1-3.7 0.1-5.6 0-1.9 0-3.8 0-5.6 0-2.2 0.1-4.4 0.2-6.5s0-4.3-0.3-6.5C280 195.1 279.5 193.1 278.7 191.3zM328.7 201.3c-0.4-1.7-0.9-3.4-1.5-5.1 -0.3-0.9-0.7-1.7-1.3-2.6 -0.6-0.8-1.1-1.6-1.8-2.2 -2-1.8-4.2-3.2-6.6-4.1s-4.9-1.7-7.5-2.1c-2.3-0.5-4.6-0.4-6.8 0.1 -2.2 0.5-4.3 1.2-6.4 2 -1.9 0.8-3.3 1.8-4.4 3.1 -1.1 1.3-2.1 2.8-3.1 4.4 -1.9 3-3.1 6-3.8 9.1 -0.7 3.1-0.5 6.4 0.4 9.8 0.1 0.3 0.2 0.7 0.3 1 0.1 0.3 0.2 0.7 0.4 1 0.5 0.9 0.9 1.9 1.4 2.8 0.5 0.9 1 1.8 1.5 2.7 1.1 1.9 2.3 3.5 3.6 4.9 1.3 1.4 3.1 2.3 5.3 2.6 1.4 0.2 2.9 0.4 4.3 0.7 1.4 0.2 2.7 0.4 4.1 0.6 0.8-0.1 1.5-0.2 2.2-0.3 0.7-0.1 1.3-0.1 2 0 1.6 0.1 3.1-0.1 4.5-0.7 1.4-0.6 2.8-1.2 4.1-1.9 1.8-0.9 3.4-2 4.7-3.3 1.3-1.3 2.4-2.9 3.2-4.8 0.9-2 1.6-4.1 2-6.1 0.4-2.1 0.5-4.2 0.3-6.3C329.5 204.7 329.1 203 328.7 201.3zM316.7 210.2c-0.1 0.8-0.3 1.5-0.6 2.2s-0.5 1.4-0.8 2.1c-0.8 1.7-1.9 2.9-3.5 3.7 -1.6 0.8-3.3 1-5.1 0.6 -2-0.4-3.8-1.4-5.2-3 -1.4-1.6-2.2-3.9-2.3-6.9 0.2-0.6 0.4-1.4 0.7-2.4s0.5-2 0.8-3c0.1-0.4 0.3-0.8 0.5-1.1 0.2-0.3 0.4-0.7 0.7-1 0.5-0.9 1.2-1.7 2.2-2.3s1.9-1 3-1.1c1.1-0.1 2.2-0.1 3.3 0.3 1.1 0.3 2.2 0.9 3.1 1.8 1.5 1.4 2.5 3 3 4.7C316.9 206.3 317 208.2 316.7 210.2zM397.4 184.6c-0.1-0.5-0.2-0.8-0.4-1 -0.5-0.3-1-0.5-1.5-0.6 -0.6-0.1-1.1-0.2-1.7-0.3 -0.6-0.1-1.1-0.1-1.7 0 -0.6 0.1-1.1 0.2-1.7 0.2 -1.2 0.1-2.3 0.1-3.5 0.1 -1.2 0-2.4 0.2-3.6 0.6 -0.8 4.6-1.9 9-3.3 13.4 -1.5 4.3-2.9 8.7-4.2 13.2 -0.5-1-0.8-2-1.1-3 -0.3-1-0.6-2.1-0.9-3 -0.5-1.4-0.9-2.8-1.3-4.2 -0.4-1.4-0.8-2.8-1.2-4.3 -0.4-1.5-0.8-3-1.1-4.4 -0.3-1.4-0.7-2.9-1.1-4.4 -0.1-0.4-0.2-0.7-0.2-0.9 0-0.2 0-0.3 0-0.5 0-0.1 0-0.3 0-0.5 0-0.2-0.1-0.4-0.1-0.8 -0.3-1-0.7-1.5-1-1.7 -0.3-0.1-0.8-0.1-1.7 0.1 -0.9 0.2-1.8 0.3-2.7 0.2 -0.9-0.1-1.9-0.1-2.8 0 -0.6 0.1-1.2 0.1-1.8 0.3 -0.6 0.1-1.1 0.2-1.7 0.3 -0.1 0.1-0.2 0.2-0.3 0.4 -0.1 0.2-0.2 0.4-0.2 0.5 -0.5 1.6-0.9 3.2-1.3 4.9 -0.4 1.6-0.8 3.2-1.2 4.9 -0.5 1.7-0.9 3.5-1.3 5.3 -0.4 1.8-0.9 3.5-1.3 5.3 -0.2 0.7-0.4 1.4-0.6 2.1 -0.2 0.7-0.4 1.4-0.6 2 -0.1 0.5-0.3 0.9-0.4 1.3 -0.2 0.4-0.4 0.9-0.6 1.6 -0.8-2.5-1.5-5-2-7.4 -0.6-2.4-1-4.8-1.3-7.2 -0.3-2.1-0.7-4.2-1.3-6.3 -0.6-2-1.2-4.1-1.7-6.2 -0.1-0.2-0.2-0.3-0.5-0.5s-0.6-0.2-0.8-0.2c-1.9-0.1-3.8-0.2-5.7-0.3 -1.9-0.1-3.8-0.1-5.7-0.2 -0.5-0.1-0.9 0-1.2 0.1s-0.6 0.4-0.7 0.9c-0.1 0.2-0.1 0.3-0.1 0.4 0 0.1 0 0.2 0 0.3 0 0.1 0.1 0.2 0.1 0.5 0 0.2 0.1 0.6 0.2 1.1 0.1 0.5 0.2 0.8 0.3 1 0.1 0.2 0.2 0.5 0.3 1 0.1 0.5 0.2 0.9 0.4 1.3 0.1 0.4 0.3 0.8 0.4 1.3 0.8 2.6 1.6 5.2 2.5 7.6 0.8 2.5 1.6 5 2.3 7.6 0.5 1.8 1 3.6 1.4 5.4 0.4 1.8 0.9 3.6 1.6 5.3 0.5 1.4 0.9 2.9 1.2 4.3 0.3 1.4 0.7 2.9 1 4.3 0.1 0.5 0.2 0.9 0.3 1.4 0.1 0.5 0.2 0.9 0.3 1.4h5c1.2 0 2.3 0 3.5 0 1.2 0 2.4 0 3.5 0 1.4 0 2.7-0.6 3.6-1.7 -0.1-1.2 0-2.7 0.4-4.6s0.9-3.9 1.6-6c0.7-2.1 1.4-4.3 2.2-6.4 0.8-2.1 1.6-4 2.3-5.6 0.5 1.7 0.9 3.4 1.3 5.1 0.4 1.7 0.9 3.3 1.3 4.9 0.3 0.9 0.5 1.7 0.7 2.6s0.4 1.7 0.6 2.6c0.3 1.2 0.6 2.4 0.9 3.6 0.3 1.2 0.6 2.4 0.9 3.6 0.1 0.6 0.5 1.2 1.2 1.8 0.7 0.6 1.3 0.9 1.8 0.8 1.7-0.4 3.5-0.6 5.2-0.5 1.7 0.1 3.4 0 5.1-0.2 0.6 0 1.3-0.1 1.9-0.3 0.2-0.1 0.5-0.3 0.7-0.4 0.2-0.2 0.4-0.4 0.4-0.6 0.3-1 0.7-2 1-3 0.3-1 0.6-2.1 0.9-3.1 0.4-1.6 0.8-3.2 1.1-4.9 0.3-1.6 0.7-3.2 1.3-4.9 1-3.1 2-6.3 3.1-9.4 1.1-3.1 2.1-6.3 3.2-9.5 0.4-1.1 0.8-2.2 1.1-3.3 0.3-1.1 0.6-2.2 0.9-3.4C397.4 185.6 397.4 185.1 397.4 184.6zM129.4 86.5c-0.1-0.4-0.3-0.7-0.4-1.1 -0.2-0.5-0.4-1-0.8-1.5 -0.2-0.2-0.3-0.5-0.5-0.6 -0.6-0.4-1.2-0.9-1.9-1 -0.3-0.1-0.6-0.1-0.9-0.1 -0.6 0.1-1.3 0.2-1.9 0.4 -0.7 0.2-1.3 0.6-1.9 1 -0.2 0.1-0.3 0.2-0.5 0.4 -0.3 0.4-0.7 0.8-0.9 1.2 -0.2 0.5-0.4 1-0.6 1.5 -0.1 0.1-0.1 0.3 0 0.4 0.1 0 0.1 0 0.2 0 0.1 0 0.2 0 0.3 0 0.4 0 0.8-0.1 1.2-0.1 0.4 0.1 0.9 0.1 1.4 0.1 0.6 0 1.1 0.1 1.7 0.1 0.4 0 0.9 0 1.3 0.1 0.6 0.1 1.2 0 1.9 0 0.5 0 1 0 1.6-0.1 0.2 0 0.4-0.1 0.6-0.1 0.2-0.1 0.3-0.2 0.2-0.5C129.5 86.6 129.5 86.5 129.4 86.5zM137.7 23.8c-7.9-8.7-17.4-14.2-28.5-16.8C98 4.5 86.7 2.9 75.3 2.2 63.8 1.5 53.4 3.6 44.1 8.7c-9.3 5.1-17.2 11.6-23.7 19.5C14 36.1 9 45.3 5.4 55.8 1.8 66.2 0 76.1 0 85.5c0.7 16.6 5.7 30.7 15 42.2 9.3 11.5 21.2 21.3 35.5 29.2 15.1 7.9 29.8 11.4 44.1 10.3 14.3-1.1 26.9-5.2 37.6-12.4 10.8-7.2 19.5-16.9 26.3-29.2 6.8-12.3 10.2-25.6 10.2-40.1 2.2-12.2-0.4-23.3-7.5-33C154.1 42.8 146.2 33.2 137.7 23.8zM52.8 93c0 0.2-0.2 0.5-0.2 0.7 0.1 0.1 0.1 0.2 0.1 0.3 0 0.8-0.1 1.6-0.1 2.4 0 1.7 0 3.4 0.1 5.2 0 0.9 0 1.9 0 2.9 0 0.4-0.2 0.5-0.6 0.6 -1.5 0.1-3 0.2-4.6 0.2 -1.3 0-2.7 0-4 0 -0.4 0-0.9-0.1-1.3-0.2 -0.2 0-0.3-0.2-0.3-0.5 0.1-2.1 0.2-4.1 0.3-6.2 0-0.8 0.1-1.7 0.1-2.5 0-1.8 0.1-3.6 0.1-5.4 0-1.8-0.1-3.6-0.1-5.4 0-1.8-1-2.8-2.6-3 -1.4-0.2-2.8-0.2-4.2 0.1 -0.3 0.1-0.7 0.2-1 0.3 -0.3 0.1-0.4 0.2-0.4 0.5 0 1-0.1 2.1-0.1 3.1 0 0.9 0 1.9-0.1 2.8 0 0.6 0 1.3 0 1.9 -0.1 1.4-0.1 2.8-0.2 4.1 -0.1 1.2-0.1 2.3-0.1 3.5 -0.1 2-0.1 3.9-0.1 5.9 0 0.2 0 0.5 0 0.7 0.1 0.3 0 0.4-0.3 0.4 -0.9 0.1-1.8 0.2-2.7 0.2 -1.5 0-2.9-0.1-4.4-0.1 -0.9 0-1.9-0.2-2.8-0.2 -0.3 0-0.4-0.1-0.4-0.4 -0.1-1.1-0.2-2.1-0.2-3.2 0-1.1 0-2.2 0-3.3 0-1.8 0.1-3.5 0.2-5.2 0-0.8 0-1.7 0.1-2.5 0-1.8 0.1-3.5 0.1-5.3 0-1.6-0.1-3.2-0.1-4.9 0-0.6 0-1.3 0-1.9 0-0.4-0.3-0.9-0.1-1.2 0.2-0.4 0.2-0.7 0.3-1.1 0-0.2 0.1-0.4 0-0.5 -0.2-0.5 0.1-0.7 0.5-0.8 1.5-0.5 3-1 4.6-1.3 1.2-0.2 2.4-0.5 3.7-0.7 1-0.2 2.1-0.3 3.2-0.4 1.4-0.1 2.9-0.1 4.3-0.3 1.5-0.1 3 0.1 4.5 0.4 1.4 0.3 2.6 0.9 3.9 1.6 0.8 0.5 1.7 0.9 2.3 1.6 0.6 0.7 1 1.4 1.2 2.3 0.1 0.4 0.3 0.8 0.4 1.2 0.3 1.2 0.6 2.4 0.7 3.6 0.2 2 0.4 4 0.5 6C52.9 90.2 52.8 91.6 52.8 93zM82 102.6c0 0.5-0.1 0.6-0.5 0.7 -0.3 0.1-0.6 0.3-0.9 0.4 -1.8 0.9-3.8 1.6-5.8 2.1 -1.3 0.4-2.6 0.5-4 0.3 -1.2-0.2-2.3-0.3-3.5-0.6 -0.9-0.2-1.8-0.7-2.7-1.1 -1.1-0.4-2-1.2-2.9-1.9 -0.8-0.6-1.5-1.3-2.2-2 -1.2-1.1-2-2.4-2.6-3.9 -0.5-1.4-1-2.8-1.4-4.3 -0.4-1.4-0.3-2.8-0.1-4.2 0.2-1.4 0.4-2.8 0.7-4.1 0.3-1.2 0.9-2.4 1.4-3.5 0.5-1.2 1.1-2.2 2-3.1 0.7-0.7 1.4-1.4 2-2.2 0.5-0.6 1.2-0.6 1.8-0.9 1.2-0.6 2.4-1 3.7-1.4 1.7-0.5 3.5-0.8 5.3-1 1.9-0.2 3.8 0 5.7 0.4 1 0.2 2 0.6 3 1 0.3 0.1 0.5 0.3 0.7 0.5 0.2 0.2 0.4 0.5 0.1 0.8 -0.1 0.1-0.1 0.2-0.1 0.3 0 0.6 0.1 1.1 0.1 1.7 0 1.3-0.1 2.5-0.1 3.7 0 1 0.1 2.1 0.1 3.1 0 0.1-0.1 0.3-0.1 0.4 -0.1-0.1-0.3-0.1-0.4-0.2 -1.2-1-2.4-2-3.8-2.5 -0.6-0.2-1.2-0.1-1.8-0.2 -0.8 0-1.5 0.1-2.3 0 -2.1 0-3.7 0.9-5 2.6 -0.5 0.6-0.9 1.2-1.2 1.9 -0.7 1.2-0.9 2.4-0.7 3.7 0.1 0.7 0.2 1.3 0.4 2 0.2 0.5 0.5 1 0.8 1.5 0.8 1.3 1.9 2.3 3.3 2.9 1 0.4 2.1 0.8 3.2 0.8 1.3 0 2.5-0.3 3.7-0.9 0.8-0.4 1.6-0.8 2.4-1.3 0.4-0.2 0.8-0.6 1.2-0.8 0.1-0.1 0.3-0.2 0.5-0.1 0.1 0 0.2 0.3 0.2 0.4 0.1 0.6 0.1 1.2 0.1 2 -0.1 1.6-0.1 3.3-0.2 5.1C81.9 101.6 81.9 102.1 82 102.6zM108.2 66.8c-1-0.7-2-1.2-3.1-1.5 -1.3-0.3-2.7-0.5-3.9 0.3 -0.3 0.2-0.5 0.4-0.6 0.7 -0.4 0.9-0.6 1.8-0.6 2.8 0 0.9-0.1 1.7-0.1 2.6 0 0.2 0 0.5 0.1 0.7 0 0.1 0.2 0.2 0.3 0.2 1 0 1.9 0 2.9 0 1.1 0 2.3 0 3.4 0 0.6 0 0.8 0.1 0.7 0.7 -0.1 1.7-0.1 3.3-0.2 5 0 0.1 0 0.2 0 0.2 0.3 0.6 0.1 1.2 0 1.8 0 0.3-0.1 0.5 0.3 0.7 0.2 0.1 0 0.3-0.1 0.4 -0.4 0.1-0.8 0.2-1.2 0.2 -1.4 0-2.8 0-4.3 0 -0.1 0-0.2 0-0.4 0 -0.3 0-0.3 0.1-0.3 0.4 0 0.7 0 1.3 0 2 0 0.7 0 1.4 0.1 2.1 0 1.2 0.1 2.4 0.1 3.7 0 1.3 0 2.5 0.1 3.8 0 0.7 0.1 1.4 0.1 2.1 0 0.2-0.1 0.5-0.1 0.7 0 0.2 0.1 0.3 0.1 0.5 0 1 0 2.1-0.1 3.1 0 0.3 0 0.7 0 1 -0.1 0.6 0.1 1.2 0.1 1.7 0.1 0.6 0 1.3-0.1 1.9 0 0.1 0 0.1-0.1 0.1 -0.5 0.3-0.9 0.6-1.5 0.5 -1-0.1-2-0.1-2.9-0.1 -1.3-0.1-2.6-0.1-3.9-0.2 -0.4 0-0.8 0.1-1.2 0.1 -0.4 0-0.8 0.1-1.3 0.1 -0.3 0-0.8-0.5-0.8-0.9 0-0.9 0-1.8 0-2.8 0-0.5 0-1.1 0-1.6 0-2.1 0-4.3 0-6.4 0-0.3 0.1-0.6 0.2-0.9 -0.1-0.1-0.2-0.2-0.2-0.4 -0.1-1.7-0.1-3.3-0.2-5 0-0.4 0.1-0.8 0.2-1.2 0-0.1-0.1-0.3-0.1-0.5 0-0.6-0.1-1.2-0.1-1.8 0-0.6 0-1.2-0.1-1.7 0-0.1-0.2-0.3-0.3-0.3 -1 0-2.1 0-3.1-0.1 -0.3 0-0.6 0-0.8 0 -0.4 0-0.6-0.2-0.6-0.6 0-1.5 0-3 0-4.5 0-1-0.1-1.9-0.1-2.9 0-0.3 0-0.7 0-1 0-0.2 0.3-0.3 0.5-0.3 1.3 0 2.5 0.1 3.8 0.1 0.6 0 0.6-0.1 0.6-0.6 0.1-1.6 0.2-3.2 0.3-4.8 0.4-0.7 0-1.6 0.3-2.4 0.1-0.2 0.2-0.5 0.3-0.7 0-0.1 0.1-0.2 0.1-0.2 -0.2-1 0.3-1.8 0.8-2.7 0.9-1.7 2.3-3.1 3.9-4.2 0.9-0.6 1.8-0.9 2.8-1.1 2-0.3 4-0.5 6-0.4 1.6 0.1 3.2 0.4 4.6 1.4 0.3 0.2 0.7 0.3 0.9 0.7 0.2 0.6 0.3 1.1 0.2 1.8 -0.2 1.3-0.3 2.7-0.4 4 -0.1 1 0.1 2 0.1 3 0 0.1 0 0.3-0.1 0.4C108.5 66.9 108.3 66.9 108.2 66.8zM138.8 91.6c-0.1 0.6-0.3 1.1-0.5 1.6 -0.1 0.1-0.2 0.3-0.4 0.3 -1.2 0-2.4 0.1-3.6 0 -1 0-2-0.1-3-0.2 0 0 0 0.1 0 0.1 -0.7-0.1-1.4-0.1-2.2-0.2 -0.5 0-1 0-1.5 0 -2 0-3.9 0.1-5.9 0.1 -0.7 0-1.3 0-2-0.1 -0.1 0-0.3 0.1-0.4 0.1 0 0.1 0.1 0.3 0.1 0.4 1 1.3 2.1 2.5 3.5 3.3 0.9 0.5 2 0.8 3.1 0.8 1.6 0.1 3.3 0 4.9-0.2 0.9-0.1 1.7-0.5 2.5-0.8 0.3-0.1 0.7-0.2 1-0.4 0.2-0.1 0.4-0.2 0.6-0.4 0 0 0.1-0.1 0.1-0.1 0.6-0.1 1.1-0.4 1.6-0.7 0.2-0.1 0.7 0.3 0.7 0.7 0 0.4 0 0.9-0.1 1.3 -0.1 1.3-0.2 2.6-0.2 4 0 0.3 0 0.6 0 0.9 0 0.1 0 0.3 0.1 0.4 0.2 0.3 0.1 0.5-0.1 0.7 -0.2 0.2-0.5 0.4-0.7 0.5 -1.7 0.8-3.4 1.6-5.3 2 -0.9 0.2-1.8 0.3-2.7 0.3 -1.1 0-2.1 0-3.2 0 -0.4 0-0.8-0.1-1.3-0.2 -1.1-0.2-2.3-0.3-3.4-0.5 -1.5-0.3-2.9-0.9-4.1-1.7 -0.7-0.5-1.5-0.8-2.3-1.2 -0.1-0.1-0.2-0.1-0.3-0.2 -0.7-0.7-1.5-1.4-2.1-2.2 -0.9-1.1-1.6-2.3-2-3.7 -0.4-1.3-0.7-2.7-0.9-4.1 -0.2-1.2-0.1-2.4 0.1-3.6 0.2-1.4 0.6-2.8 1-4.1 0.5-1.4 1-2.7 1.7-3.9 0.8-1.3 1.7-2.5 2.8-3.5 0.7-0.6 1.3-1.2 2.1-1.7 0.7-0.5 1.5-1 2.4-1.2 0.5-0.1 1-0.3 1.5-0.5 0.7-0.3 1.5-0.3 2.2-0.5 1.3-0.3 2.7-0.2 4.1-0.2 0.4 0 0.8 0.1 1.2 0.2 1.3 0.3 2.5 0.7 3.8 1.1 1.2 0.4 2.3 1.1 3.3 2 1 0.8 1.8 1.7 2.4 2.8 0.7 1.2 1.2 2.5 1.4 3.8 0.1 0.8 0.2 1.7 0.3 2.5C139 87.6 139 89.6 138.8 91.6zM151.2 103.2c-0.8 1.7-1.9 3-3.9 3.4 -0.6 0.1-1.2 0.1-1.8 0 -1-0.2-1.9-0.7-2.6-1.3 -0.7-0.6-1.1-1.4-1-2.4 0.1-0.6 0.1-1.2 0.3-1.8 0.8-2.5 2.1-3.4 4.6-3.4 1.9-0.2 4.4 1.8 4.5 4.3C151.4 102.5 151.4 102.9 151.2 103.2z"/></svg>